<svg width="29" height="30" viewBox="0 0 29 30" fill="none" xmlns="http://www.w3.org/2000/svg">
<g clip-path="url(#clip0_12_655)">
<path fill-rule="evenodd" clip-rule="evenodd" d="M14.4958 0C6.5022 0 0 6.7283 0 14.9999C0 18.2803 1.02264 21.3225 2.76105 23.7918L0.954336 29.3649L6.52768 27.5222C8.81999 29.0919 11.5555 30 14.5042 30C22.4978 30 29 23.2715 29 15.0001C29 6.72856 22.4978 0.000247955 14.5042 0.000247955H14.4958V0ZM10.4478 7.61927C10.1666 6.92267 9.95352 6.89629 9.52757 6.87838C9.38255 6.86967 9.22092 6.86096 9.04174 6.86096C8.4876 6.86096 7.90822 7.02845 7.55876 7.39878C7.13281 7.84849 6.076 8.89774 6.076 11.0495C6.076 13.2013 7.59291 15.2823 7.79734 15.5735C8.01043 15.8642 10.7546 20.3439 15.0155 22.1697C18.3475 23.5982 19.3363 23.4658 20.0946 23.2983C21.2024 23.0514 22.5916 22.2045 22.9411 21.1819C23.2905 20.1588 23.2905 19.2857 23.1881 19.1006C23.0859 18.9154 22.8044 18.8099 22.3785 18.5891C21.9526 18.3686 19.8815 17.3104 19.4895 17.1693C19.1059 17.0195 18.7396 17.0725 18.45 17.4958C18.0409 18.0866 17.6405 18.6864 17.3165 19.0478C17.0608 19.33 16.6431 19.3654 16.2938 19.2153C15.8251 19.0127 14.5129 18.5361 12.8935 17.0459C11.6407 15.8908 10.7886 14.4536 10.5416 14.0215C10.2943 13.5808 10.5161 13.3247 10.7118 13.0868C10.9249 12.8133 11.1294 12.6194 11.3425 12.3635C11.5556 12.108 11.6749 11.9756 11.8112 11.6757C11.9563 11.3847 11.8538 11.0848 11.7516 10.8643C11.6493 10.6438 10.7972 8.49207 10.4478 7.61927Z" fill="#101010"/>
</g>
<defs>
<clipPath id="clip0_12_655">
<rect width="29" height="30" fill="white"/>
</clipPath>
</defs>
</svg>
