<svg width="36" height="30" viewBox="0 0 36 30" fill="none" xmlns="http://www.w3.org/2000/svg">
<path fill-rule="evenodd" clip-rule="evenodd" d="M36 3.55147C34.6772 4.15385 33.253 4.56122 31.7591 4.74323C33.2847 3.80715 34.4554 2.32287 35.0069 0.554718C33.5784 1.42146 32 2.052 30.3138 2.39003C28.9699 0.918741 27.0491 0 24.9234 0C20.8473 0 17.5404 3.39111 17.5404 7.57313C17.5404 8.16684 17.6038 8.74323 17.7306 9.29795C11.5922 8.98159 6.15108 5.96966 2.50607 1.38245C1.87005 2.50487 1.50659 3.80715 1.50659 5.19394C1.50659 7.82015 2.81036 10.1387 4.7924 11.4973C3.58373 11.4605 2.44268 11.1159 1.44532 10.5526V10.6457C1.44532 14.3164 3.99154 17.3781 7.37242 18.0715C6.7533 18.2492 6.10037 18.338 5.42631 18.338C4.95087 18.338 4.486 18.2925 4.03592 18.2037C4.97623 21.2113 7.70205 23.402 10.935 23.4605C8.40781 25.493 5.22134 26.7042 1.76228 26.7042C1.1664 26.7042 0.576862 26.6696 0 26.6002C3.26889 28.7454 7.15267 30 11.3217 30C24.9086 30 32.336 18.4615 32.336 8.45287C32.336 8.12351 32.3296 7.79415 32.3169 7.47129C33.7602 6.40303 35.0132 5.07043 36 3.55147Z" fill="#101010"/>
</svg>
