<svg width="42" height="30" viewBox="0 0 42 30" fill="none" xmlns="http://www.w3.org/2000/svg">
<g clip-path="url(#clip0_12_651)">
<path fill-rule="evenodd" clip-rule="evenodd" d="M16.6635 20.5323L16.6622 8.54801L28.0101 14.5608L16.6635 20.5323ZM41.58 6.47132C41.58 6.47132 41.1692 3.53224 39.9105 2.23798C38.3132 0.538509 36.5229 0.530495 35.7026 0.43186C29.8252 -6.25849e-06 21.0092 0 21.0092 0H20.9908C20.9908 0 12.1748 -6.25849e-06 6.29738 0.43186C5.47576 0.530495 3.68682 0.538509 2.08819 2.23798C0.829504 3.53224 0.419996 6.47132 0.419996 6.47132C0.419996 6.47132 0 9.92358 0 13.3745V16.6108C0 20.0631 0.419996 23.514 0.419996 23.514C0.419996 23.514 0.829504 26.4531 2.08819 27.7474C3.68682 29.4468 5.78549 29.3935 6.71999 29.5708C10.08 29.8987 21 30 21 30C21 30 29.8252 29.9867 35.7026 29.5548C36.5229 29.4548 38.3132 29.4468 39.9105 27.7474C41.1692 26.4531 41.58 23.514 41.58 23.514C41.58 23.514 42 20.0631 42 16.6108V13.3745C42 9.92358 41.58 6.47132 41.58 6.47132Z" fill="#101010"/>
</g>
<defs>
<clipPath id="clip0_12_651">
<rect width="42" height="30" fill="white"/>
</clipPath>
</defs>
</svg>
