<svg width="19" height="18" viewBox="0 0 19 18" fill="none" xmlns="http://www.w3.org/2000/svg">
<path fill-rule="evenodd" clip-rule="evenodd" d="M9.58451 -3.43323e-05C4.61432 -3.43323e-05 0.583984 4.02924 0.583984 9.00049C0.583984 12.6847 2.80025 15.8514 5.97224 17.2432C5.94684 16.6156 5.96801 15.8599 6.12782 15.1762C6.3014 14.4459 7.28569 10.2727 7.28569 10.2727C7.28569 10.2727 6.99887 9.69798 6.99887 8.84809C6.99887 7.51452 7.77255 6.51858 8.73463 6.51858C9.55276 6.51858 9.9486 7.1335 9.9486 7.87014C9.9486 8.6925 9.42364 9.9234 9.15375 11.0633C8.92832 12.019 9.63214 12.7969 10.5741 12.7969C12.2792 12.7969 13.4275 10.6071 13.4275 8.01196C13.4275 6.04019 12.0992 4.56373 9.68294 4.56373C6.95336 4.56373 5.25253 6.59902 5.25253 8.87243C5.25253 9.65776 5.48326 10.2102 5.84523 10.6378C6.01246 10.8357 6.03469 10.9141 5.97436 11.1406C5.93202 11.3046 5.83253 11.7047 5.79125 11.8624C5.73092 12.0899 5.54677 12.1725 5.34144 12.0878C4.08302 11.5745 3.49773 10.1975 3.49773 8.64911C3.49773 6.09311 5.65366 3.0259 9.92955 3.0259C13.3661 3.0259 15.6279 5.51417 15.6279 8.18236C15.6279 11.7131 13.6657 14.3506 10.771 14.3506C9.80042 14.3506 8.88597 13.8257 8.57269 13.2298C8.57269 13.2298 8.04985 15.3032 7.93978 15.7033C7.74927 16.3965 7.37565 17.0908 7.03379 17.6306C7.84346 17.8698 8.69864 18 9.58451 18C14.5547 18 18.584 13.9707 18.584 9.00049C18.584 4.02924 14.5547 -3.43323e-05 9.58451 -3.43323e-05Z" fill="white"/>
</svg>
