<svg width="32" height="32" viewBox="0 0 32 32" fill="none" xmlns="http://www.w3.org/2000/svg">
<mask id="mask0_850_838" style="mask-type:luminance" maskUnits="userSpaceOnUse" x="0" y="0" width="32" height="32">
<path d="M0 16C0 10.4 1.19209e-07 7.6 1.09 5.46C2.04872 3.57846 3.57846 2.04872 5.46 1.09C7.6 1.19209e-07 10.4 0 16 0C21.6 0 24.4 1.19209e-07 26.54 1.09C28.4215 2.04872 29.9513 3.57846 30.91 5.46C32 7.6 32 10.4 32 16C32 21.6 32 24.4 30.91 26.54C29.9512 28.4215 28.4215 29.9512 26.54 30.91C24.4 32 21.6 32 16 32C10.4 32 7.6 32 5.46 30.91C3.57846 29.9513 2.04872 28.4215 1.09 26.54C1.19209e-07 24.4 0 21.6 0 16Z" fill="white"/>
</mask>
<g mask="url(#mask0_850_838)">
<path d="M22 0H10C4.47715 0 0 4.47715 0 10V22C0 27.5228 4.47715 32 10 32H22C27.5228 32 32 27.5228 32 22V10C32 4.47715 27.5228 0 22 0Z" fill="url(#paint0_linear_850_838)"/>
<path d="M22.1133 5.65999C20.9613 5.64099 20.1193 5.36199 19.2213 5.06399C19.0324 5.00054 18.8431 4.93854 18.6533 4.87799C16.1703 4.09499 13.0963 4.13899 10.2813 5.45799C8.0083 6.52339 6.14601 8.30281 4.9783 10.525C4.7763 10.914 4.5813 11.32 4.3873 11.725C3.8623 12.82 3.3393 13.911 2.6583 14.667C-0.591702 17.997 -2.0687 21.447 -1.0157 23.632C1.2533 28.345 33.9673 13.022 31.6983 8.30799C30.8083 6.46299 26.9893 5.33299 22.1133 5.66099V5.65999Z" fill="#012B5B"/>
<path fill-rule="evenodd" clip-rule="evenodd" d="M19.0557 23.482C28.1277 19.233 33.5407 11.76 32.0687 8.70401C30.5977 5.64801 21.7557 6.19401 12.6847 10.444C3.61469 14.694 -2.25031 21.034 -0.779311 24.091C0.692689 27.147 9.98569 27.731 19.0557 23.482Z" fill="#1884FF"/>
<g filter="url(#filter0_d_850_838)">
<path fill-rule="evenodd" clip-rule="evenodd" d="M18.8319 22.116C23.1219 20.106 26.0359 17.306 25.3399 15.859C24.6439 14.414 20.6019 14.871 16.3109 16.881C12.0209 18.891 9.10693 21.691 9.80293 23.137C10.4989 24.582 14.5409 24.126 18.8319 22.116Z" fill="white"/>
</g>
</g>
<defs>
<filter id="filter0_d_850_838" x="2.0242" y="7.33944" width="31.0942" height="24.3175" filterUnits="userSpaceOnUse" color-interpolation-filters="sRGB">
<feFlood flood-opacity="0" result="BackgroundImageFix"/>
<feColorMatrix in="SourceAlpha" type="matrix" values="0 0 0 0 0 0 0 0 0 0 0 0 0 0 0 0 0 0 127 0" result="hardAlpha"/>
<feOffset/>
<feGaussianBlur stdDeviation="3.838"/>
<feColorMatrix type="matrix" values="0 0 0 0 1 0 0 0 0 1 0 0 0 0 1 0 0 0 0.6 0"/>
<feBlend mode="normal" in2="BackgroundImageFix" result="effect1_dropShadow_850_838"/>
<feBlend mode="normal" in="SourceGraphic" in2="effect1_dropShadow_850_838" result="shape"/>
</filter>
<linearGradient id="paint0_linear_850_838" x1="13.5" y1="11.5" x2="27" y2="31" gradientUnits="userSpaceOnUse">
<stop offset="0.021" stop-color="#0151AE"/>
<stop offset="1" stop-color="#036DE6"/>
</linearGradient>
</defs>
</svg>
