<svg fill="none" xmlns="http://www.w3.org/2000/svg" viewBox="0 0 44 44"><path fill-rule="evenodd" clip-rule="evenodd" d="M5.192 20.852a6.111 6.111 0 017.568-7.762c1.435-4.406 5.577-7.59 10.462-7.59 5.683 0 10.359 4.309 10.94 9.838 5.528.58 9.837 5.257 9.837 10.94 0 6.074-4.924 11-11 11a10.95 10.95 0 01-5.345-1.385A12.169 12.169 0 0122 37.277c-2.784 0-5.35-.93-7.404-2.497a8.556 8.556 0 11-9.403-13.928z" fill="#fff"/><path fill-rule="evenodd" clip-rule="evenodd" d="M33 37.277c6.075 0 11-4.925 11-11s-4.925-11-11-11c-6.076 0-11 4.925-11 11s4.924 11 11 11z" fill="url(#paint0_linear)"/><path fill-rule="evenodd" clip-rule="evenodd" d="M10.999 25.056a6.111 6.111 0 100-12.222 6.111 6.111 0 000 12.222z" fill="url(#paint1_linear)"/><path opacity=".7" fill-rule="evenodd" clip-rule="evenodd" d="M8.555 37.277a8.556 8.556 0 100-17.11 8.556 8.556 0 000 17.11z" fill="url(#paint2_linear)"/><path opacity=".8" fill-rule="evenodd" clip-rule="evenodd" d="M23.221 27.5c6.076 0 11-4.925 11-11s-4.924-11-11-11c-6.075 0-11 4.925-11 11s4.925 11 11 11z" fill="url(#paint3_linear)"/><path opacity=".8" fill-rule="evenodd" clip-rule="evenodd" d="M21.999 37.278c6.75 0 12.222-5.472 12.222-12.222 0-6.75-5.472-12.222-12.222-12.222-6.75 0-12.223 5.472-12.223 12.222 0 6.75 5.473 12.222 12.223 12.222z" fill="url(#paint4_linear)"/><defs><linearGradient id="paint0_linear" x1="17.929" y1="25.576" x2="33.248" y2="40.73" gradientUnits="userSpaceOnUse"><stop stop-color="#FFD802"/><stop offset="1" stop-color="#FB5F02"/></linearGradient><linearGradient id="paint1_linear" x1="4.888" y1="12.834" x2="4.888" y2="25.056" gradientUnits="userSpaceOnUse"><stop stop-color="#FEC102"/><stop offset="1" stop-color="#FDBB03"/></linearGradient><linearGradient id="paint2_linear" x1="-.001" y1="37.277" x2="17.11" y2="37.277" gradientUnits="userSpaceOnUse"><stop stop-color="#FFE300"/><stop offset="1" stop-color="#FEFB07"/></linearGradient><linearGradient id="paint3_linear" x1="15.882" y1="5.5" x2="15.882" y2="20.178" gradientUnits="userSpaceOnUse"><stop stop-color="#FFD802"/><stop offset="1" stop-color="#FF9C02"/></linearGradient><linearGradient id="paint4_linear" x1="19.618" y1="14.711" x2="14.814" y2="26.867" gradientUnits="userSpaceOnUse"><stop stop-color="#FEFC93" stop-opacity=".5"/><stop offset="1" stop-color="#FFB900"/></linearGradient></defs></svg>