<svg viewBox="0 0 48 48" xmlns="http://www.w3.org/2000/svg" xmlns:xlink="http://www.w3.org/1999/xlink">
  <defs>
    <linearGradient x1="35.276%" y1="12.669%" x2="50%" y2="68.332%" id="c">
      <stop stop-color="#fff" offset="0%"/>
      <stop stop-color="#fff" stop-opacity="0" offset="100%"/>
    </linearGradient>
    <filter x="-136.8%" y="-240.1%" width="373.5%" height="580.2%" filterUnits="objectBoundingBox" id="a">
      <feMorphology radius="3" operator="dilate" in="SourceAlpha" result="shadowSpreadOuter1"/>
      <feOffset in="shadowSpreadOuter1" result="shadowOffsetOuter1"/>
      <feGaussianBlur stdDeviation="6.5" in="shadowOffsetOuter1" result="shadowBlurOuter1"/>
      <feColorMatrix values="0 0 0 0 1 0 0 0 0 1 0 0 0 0 1 0 0 0 0.6 0" in="shadowBlurOuter1"/>
    </filter>
    <path d="M28.927 34.078c5.68-2.66 9.536-6.37 8.615-8.283-.92-1.914-6.273-1.308-11.952 1.353-5.68 2.66-9.537 6.368-8.616 8.282.92 1.913 6.273 1.308 11.953-1.352z" id="b"/>
  </defs>
  <path d="M33.28 12.295c-1.847-.03-3.092-.564-4.59-1.036-3.287-1.04-7.356-.98-11.083.765a15.233 15.233 0 00-7.02 6.707c-1.003 1.926-1.855 4.16-3.112 5.528l-.185.193-.005.005-.022.022c-4.124 4.326-5.975 8.77-4.61 11.605C5.658 42.327 48.967 22.04 45.963 15.8c-1.176-2.442-6.23-3.938-12.68-3.505z"/>
  <path d="M29.224 35.888C41.232 30.263 48.4 20.37 46.45 16.324c-1.947-4.046-13.652-3.322-25.66 2.304C8.78 24.253 1.017 32.648 2.964 36.693c1.948 4.046 14.25 4.82 26.26-.805z" fill="#07F"/>
  <use filter="url(#a)" xlink:href="#b"/>
  <use fill="#FFF" fill-rule="evenodd" xlink:href="#b"/>
  <path fill="url(#c)" opacity=".4" d="M17.067 35.474l.093 7.18 15.802-.91 10.492-10.308-6.163-5.848"/>
</svg>
