<svg width="73" height="73" viewBox="0 0 73 73" fill="none" xmlns="http://www.w3.org/2000/svg">
<circle cx="35.5" cy="37.5" r="35.25" stroke="#6768AA" stroke-width="0.5"/>
<path d="M72.5 33C72.5 50.9285 57.2989 65.5 38.5 65.5C19.7011 65.5 4.5 50.9285 4.5 33C4.5 15.0715 19.7011 0.5 38.5 0.5C57.2989 0.5 72.5 15.0715 72.5 33Z" stroke="#86A094"/>
<circle cx="35" cy="38" r="32.5" stroke="black"/>
<path d="M19.4005 34V21.4H20.8765L29.2105 31.75H28.4365V21.4H30.2365V34H28.7605L20.4265 23.65H21.2005V34H19.4005ZM44.026 30.958L43.936 28.762L51.082 21.4H53.134L47.608 27.232L46.6 28.348L44.026 30.958ZM42.442 34V21.4H44.242V34H42.442ZM51.37 34L46.204 27.988L47.41 26.656L53.476 34H51.37Z" fill="#6768AA"/>
<path d="M21.7492 45.958L21.6592 43.762L28.8052 36.4H30.8572L25.3312 42.232L24.3232 43.348L21.7492 45.958ZM20.1652 49V36.4H21.9652V49H20.1652ZM29.0932 49L23.9272 42.988L25.1332 41.656L31.1992 49H29.0932ZM41.5367 49V36.4H46.4507C47.5547 36.4 48.4967 36.574 49.2767 36.922C50.0567 37.27 50.6567 37.774 51.0767 38.434C51.4967 39.094 51.7067 39.88 51.7067 40.792C51.7067 41.704 51.4967 42.49 51.0767 43.15C50.6567 43.798 50.0567 44.296 49.2767 44.644C48.4967 44.992 47.5547 45.166 46.4507 45.166H42.5267L43.3367 44.338V49H41.5367ZM49.9607 49L46.7567 44.428H48.6827L51.9227 49H49.9607ZM43.3367 44.518L42.5267 43.636H46.3967C47.5487 43.636 48.4187 43.39 49.0067 42.898C49.6067 42.394 49.9067 41.692 49.9067 40.792C49.9067 39.892 49.6067 39.196 49.0067 38.704C48.4187 38.212 47.5487 37.966 46.3967 37.966H42.5267L43.3367 37.066V44.518Z" fill="#86A094"/>
</svg>
